<svg width="276" height="40" viewBox="0 0 276 40" fill="none" xmlns="http://www.w3.org/2000/svg">
<g filter="url(#filter0_d_0_1)">
<path d="M21.3097 10.2756C21.196 9.12973 20.7083 8.23958 19.8466 7.60511C18.9848 6.97064 17.8153 6.65341 16.3381 6.65341C15.3343 6.65341 14.4867 6.79545 13.7955 7.07955C13.1042 7.35417 12.5739 7.73769 12.2045 8.23011C11.8447 8.72254 11.6648 9.28125 11.6648 9.90625C11.6458 10.4271 11.7547 10.8816 11.9915 11.2699C12.2377 11.6581 12.5739 11.9943 13 12.2784C13.4261 12.553 13.9186 12.7945 14.4773 13.0028C15.036 13.2017 15.6326 13.3722 16.267 13.5142L18.8807 14.1392C20.1496 14.4233 21.3144 14.8021 22.375 15.2756C23.4356 15.7491 24.3542 16.3314 25.1307 17.0227C25.9072 17.714 26.5085 18.5284 26.9347 19.4659C27.3703 20.4034 27.5928 21.4782 27.6023 22.6903C27.5928 24.4706 27.1383 26.0142 26.2386 27.321C25.3485 28.6184 24.0606 29.6269 22.375 30.3466C20.6989 31.0568 18.6771 31.4119 16.3097 31.4119C13.9612 31.4119 11.9157 31.0521 10.1733 30.3324C8.44034 29.6127 7.08617 28.5473 6.1108 27.1364C5.14489 25.7159 4.63826 23.9593 4.59091 21.8665H10.5426C10.6089 22.8419 10.8883 23.6562 11.3807 24.3097C11.8826 24.9536 12.5502 25.4413 13.3835 25.7727C14.2263 26.0947 15.178 26.2557 16.2386 26.2557C17.2803 26.2557 18.1847 26.1042 18.9517 25.8011C19.7282 25.4981 20.3295 25.0767 20.7557 24.5369C21.1818 23.9972 21.3949 23.3769 21.3949 22.6761C21.3949 22.0227 21.2008 21.4735 20.8125 21.0284C20.4337 20.5833 19.875 20.2045 19.1364 19.892C18.4072 19.5795 17.5123 19.2955 16.4517 19.0398L13.2841 18.2443C10.8314 17.6477 8.89489 16.715 7.47443 15.446C6.05398 14.1771 5.34848 12.4678 5.35795 10.3182C5.34848 8.55682 5.81723 7.01799 6.7642 5.7017C7.72064 4.38542 9.0322 3.35795 10.6989 2.61932C12.3655 1.88068 14.2595 1.51136 16.3807 1.51136C18.5398 1.51136 20.4242 1.88068 22.0341 2.61932C23.6534 3.35795 24.9129 4.38542 25.8125 5.7017C26.7121 7.01799 27.1761 8.54261 27.2045 10.2756H21.3097ZM37.6768 18.3864V31H31.6257V1.90909H37.5064V13.0312H37.7621C38.2545 11.7434 39.05 10.7348 40.1484 10.0057C41.2469 9.26705 42.6248 8.89773 44.282 8.89773C45.7971 8.89773 47.1181 9.22917 48.245 9.89205C49.3814 10.5455 50.2621 11.4877 50.8871 12.7188C51.5215 13.9403 51.834 15.4034 51.8246 17.108V31H45.7734V18.1875C45.7829 16.8428 45.442 15.7964 44.7507 15.0483C44.0689 14.3002 43.1125 13.9261 41.8814 13.9261C41.0575 13.9261 40.3284 14.1013 39.6939 14.4517C39.0689 14.8021 38.5765 15.3134 38.2166 15.9858C37.8662 16.6487 37.6863 17.4489 37.6768 18.3864ZM62.8082 31.4119C61.4162 31.4119 60.1757 31.1705 59.0866 30.6875C57.9976 30.1951 57.1359 29.4706 56.5014 28.5142C55.8764 27.5483 55.5639 26.3456 55.5639 24.9062C55.5639 23.6941 55.7865 22.6761 56.2315 21.8523C56.6766 21.0284 57.2827 20.3655 58.0497 19.8636C58.8168 19.3617 59.688 18.983 60.6634 18.7273C61.6482 18.4716 62.6804 18.2917 63.7599 18.1875C65.0289 18.0549 66.0516 17.9318 66.8281 17.8182C67.6046 17.6951 68.1681 17.5152 68.5185 17.2784C68.8688 17.0417 69.044 16.6913 69.044 16.2273V16.142C69.044 15.2424 68.7599 14.5464 68.1918 14.054C67.633 13.5616 66.8376 13.3153 65.8054 13.3153C64.7164 13.3153 63.8499 13.5568 63.206 14.0398C62.562 14.5133 62.1359 15.1098 61.9276 15.8295L56.331 15.375C56.6151 14.0492 57.1738 12.9034 58.0071 11.9375C58.8404 10.9621 59.9152 10.214 61.2315 9.69318C62.5573 9.16288 64.0914 8.89773 65.8338 8.89773C67.0459 8.89773 68.206 9.03977 69.3139 9.32386C70.4313 9.60795 71.4209 10.0483 72.2827 10.6449C73.1539 11.2415 73.8404 12.0085 74.3423 12.946C74.8442 13.8741 75.0952 14.9867 75.0952 16.2841V31H69.3565V27.9744H69.1861C68.8357 28.6562 68.367 29.2576 67.7798 29.7784C67.1927 30.2898 66.4872 30.6922 65.6634 30.9858C64.8395 31.2699 63.8878 31.4119 62.8082 31.4119ZM64.5412 27.2358C65.4313 27.2358 66.2173 27.0606 66.8991 26.7102C67.581 26.3504 68.116 25.8674 68.5043 25.2614C68.8925 24.6553 69.0866 23.9687 69.0866 23.2017V20.8864C68.8973 21.0095 68.6368 21.1231 68.3054 21.2273C67.9834 21.322 67.6188 21.4119 67.2116 21.4972C66.8045 21.5729 66.3973 21.6439 65.9901 21.7102C65.5829 21.767 65.2135 21.8191 64.8821 21.8665C64.1719 21.9706 63.5516 22.1364 63.0213 22.3636C62.491 22.5909 62.0791 22.8987 61.7855 23.2869C61.492 23.6657 61.3452 24.1392 61.3452 24.7074C61.3452 25.5312 61.6435 26.161 62.2401 26.5966C62.8461 27.0227 63.6132 27.2358 64.5412 27.2358ZM79.7898 31V9.18182H85.8409V31H79.7898ZM82.8295 6.36932C81.9299 6.36932 81.1581 6.07102 80.5142 5.47443C79.8797 4.86837 79.5625 4.14394 79.5625 3.30114C79.5625 2.4678 79.8797 1.75284 80.5142 1.15625C81.1581 0.550188 81.9299 0.247158 82.8295 0.247158C83.7292 0.247158 84.4962 0.550188 85.1307 1.15625C85.7746 1.75284 86.0966 2.4678 86.0966 3.30114C86.0966 4.14394 85.7746 4.86837 85.1307 5.47443C84.4962 6.07102 83.7292 6.36932 82.8295 6.36932ZM96.1712 24.7216L96.1854 17.4631H97.0661L104.055 9.18182H111.001L101.612 20.1477H100.177L96.1712 24.7216ZM90.6882 31V1.90909H96.7393V31H90.6882ZM104.325 31L97.9041 21.4972L101.938 17.2216L111.413 31H104.325Z" fill="black"/>
</g>
<g filter="url(#filter1_d_0_1)">
<path d="M130.543 31H123.952L133.994 1.90909H141.92L151.949 31H145.358L138.071 8.55682H137.844L130.543 31ZM130.131 19.5653H145.699V24.3665H130.131V19.5653ZM155.337 31V9.18182H161.203V12.9886H161.43C161.828 11.6345 162.496 10.6117 163.433 9.92045C164.371 9.2197 165.45 8.86932 166.672 8.86932C166.975 8.86932 167.302 8.88826 167.652 8.92614C168.002 8.96402 168.31 9.0161 168.575 9.08239V14.4517C168.291 14.3665 167.898 14.2907 167.396 14.2244C166.894 14.1581 166.435 14.125 166.018 14.125C165.128 14.125 164.333 14.3191 163.632 14.7074C162.941 15.0862 162.392 15.6165 161.984 16.2983C161.587 16.9801 161.388 17.7661 161.388 18.6562V31H155.337ZM189.857 15.4034L184.317 15.7443C184.223 15.2708 184.019 14.8447 183.707 14.4659C183.394 14.0777 182.982 13.7699 182.471 13.5426C181.969 13.3059 181.368 13.1875 180.667 13.1875C179.729 13.1875 178.939 13.3864 178.295 13.7841C177.651 14.1723 177.329 14.6932 177.329 15.3466C177.329 15.8674 177.537 16.3078 177.954 16.6676C178.371 17.0275 179.085 17.3163 180.099 17.5341L184.048 18.3295C186.169 18.7652 187.75 19.4659 188.792 20.4318C189.834 21.3977 190.354 22.6667 190.354 24.2386C190.354 25.6686 189.933 26.9233 189.09 28.0028C188.257 29.0824 187.111 29.9252 185.653 30.5312C184.204 31.1278 182.532 31.4261 180.638 31.4261C177.75 31.4261 175.449 30.8248 173.735 29.6222C172.031 28.41 171.031 26.7623 170.738 24.679L176.69 24.3665C176.87 25.2472 177.305 25.9195 177.996 26.3835C178.688 26.8381 179.573 27.0653 180.653 27.0653C181.713 27.0653 182.566 26.8617 183.21 26.4545C183.863 26.0379 184.194 25.5028 184.204 24.8494C184.194 24.3002 183.962 23.8504 183.508 23.5C183.053 23.1402 182.353 22.8655 181.406 22.6761L177.627 21.9233C175.496 21.4972 173.91 20.7585 172.869 19.7074C171.836 18.6562 171.32 17.3163 171.32 15.6875C171.32 14.286 171.699 13.0786 172.457 12.0653C173.224 11.0521 174.299 10.2708 175.681 9.72159C177.073 9.17235 178.702 8.89773 180.567 8.89773C183.323 8.89773 185.492 9.48011 187.073 10.6449C188.664 11.8097 189.592 13.3958 189.857 15.4034ZM200.386 31.4119C198.994 31.4119 197.754 31.1705 196.665 30.6875C195.576 30.1951 194.714 29.4706 194.08 28.5142C193.455 27.5483 193.142 26.3456 193.142 24.9062C193.142 23.6941 193.365 22.6761 193.81 21.8523C194.255 21.0284 194.861 20.3655 195.628 19.8636C196.395 19.3617 197.266 18.983 198.241 18.7273C199.226 18.4716 200.259 18.2917 201.338 18.1875C202.607 18.0549 203.63 17.9318 204.406 17.8182C205.183 17.6951 205.746 17.5152 206.097 17.2784C206.447 17.0417 206.622 16.6913 206.622 16.2273V16.142C206.622 15.2424 206.338 14.5464 205.77 14.054C205.211 13.5616 204.416 13.3153 203.384 13.3153C202.295 13.3153 201.428 13.5568 200.784 14.0398C200.14 14.5133 199.714 15.1098 199.506 15.8295L193.909 15.375C194.193 14.0492 194.752 12.9034 195.585 11.9375C196.419 10.9621 197.493 10.214 198.81 9.69318C200.135 9.16288 201.67 8.89773 203.412 8.89773C204.624 8.89773 205.784 9.03977 206.892 9.32386C208.009 9.60795 208.999 10.0483 209.861 10.6449C210.732 11.2415 211.419 12.0085 211.92 12.946C212.422 13.8741 212.673 14.9867 212.673 16.2841V31H206.935V27.9744H206.764C206.414 28.6562 205.945 29.2576 205.358 29.7784C204.771 30.2898 204.065 30.6922 203.241 30.9858C202.418 31.2699 201.466 31.4119 200.386 31.4119ZM202.119 27.2358C203.009 27.2358 203.795 27.0606 204.477 26.7102C205.159 26.3504 205.694 25.8674 206.082 25.2614C206.471 24.6553 206.665 23.9687 206.665 23.2017V20.8864C206.475 21.0095 206.215 21.1231 205.884 21.2273C205.562 21.322 205.197 21.4119 204.79 21.4972C204.383 21.5729 203.975 21.6439 203.568 21.7102C203.161 21.767 202.792 21.8191 202.46 21.8665C201.75 21.9706 201.13 22.1364 200.599 22.3636C200.069 22.5909 199.657 22.8987 199.364 23.2869C199.07 23.6657 198.923 24.1392 198.923 24.7074C198.923 25.5312 199.222 26.161 199.818 26.5966C200.424 27.0227 201.191 27.2358 202.119 27.2358ZM223.419 1.90909V31H217.368V1.90909H223.419ZM234.488 31.4119C233.096 31.4119 231.855 31.1705 230.766 30.6875C229.677 30.1951 228.816 29.4706 228.181 28.5142C227.556 27.5483 227.244 26.3456 227.244 24.9062C227.244 23.6941 227.466 22.6761 227.911 21.8523C228.356 21.0284 228.962 20.3655 229.729 19.8636C230.496 19.3617 231.368 18.983 232.343 18.7273C233.328 18.4716 234.36 18.2917 235.44 18.1875C236.709 18.0549 237.731 17.9318 238.508 17.8182C239.284 17.6951 239.848 17.5152 240.198 17.2784C240.549 17.0417 240.724 16.6913 240.724 16.2273V16.142C240.724 15.2424 240.44 14.5464 239.871 14.054C239.313 13.5616 238.517 13.3153 237.485 13.3153C236.396 13.3153 235.53 13.5568 234.886 14.0398C234.242 14.5133 233.816 15.1098 233.607 15.8295L228.011 15.375C228.295 14.0492 228.853 12.9034 229.687 11.9375C230.52 10.9621 231.595 10.214 232.911 9.69318C234.237 9.16288 235.771 8.89773 237.513 8.89773C238.726 8.89773 239.886 9.03977 240.994 9.32386C242.111 9.60795 243.101 10.0483 243.962 10.6449C244.834 11.2415 245.52 12.0085 246.022 12.946C246.524 13.8741 246.775 14.9867 246.775 16.2841V31H241.036V27.9744H240.866C240.515 28.6562 240.047 29.2576 239.46 29.7784C238.872 30.2898 238.167 30.6922 237.343 30.9858C236.519 31.2699 235.567 31.4119 234.488 31.4119ZM236.221 27.2358C237.111 27.2358 237.897 27.0606 238.579 26.7102C239.261 26.3504 239.796 25.8674 240.184 25.2614C240.572 24.6553 240.766 23.9687 240.766 23.2017V20.8864C240.577 21.0095 240.317 21.1231 239.985 21.2273C239.663 21.322 239.299 21.4119 238.891 21.4972C238.484 21.5729 238.077 21.6439 237.67 21.7102C237.263 21.767 236.893 21.8191 236.562 21.8665C235.852 21.9706 235.231 22.1364 234.701 22.3636C234.171 22.5909 233.759 22.8987 233.465 23.2869C233.172 23.6657 233.025 24.1392 233.025 24.7074C233.025 25.5312 233.323 26.161 233.92 26.5966C234.526 27.0227 235.293 27.2358 236.221 27.2358ZM257.521 18.3864V31H251.469V9.18182H257.237V13.0312H257.492C257.975 11.7623 258.785 10.7585 259.921 10.0199C261.058 9.27178 262.435 8.89773 264.055 8.89773C265.57 8.89773 266.891 9.22917 268.018 9.89205C269.145 10.5549 270.021 11.5019 270.646 12.733C271.271 13.9545 271.583 15.4129 271.583 17.108V31H265.532V18.1875C265.541 16.8523 265.201 15.8106 264.509 15.0625C263.818 14.3049 262.866 13.9261 261.654 13.9261C260.84 13.9261 260.12 14.1013 259.495 14.4517C258.879 14.8021 258.397 15.3134 258.046 15.9858C257.705 16.6487 257.53 17.4489 257.521 18.3864Z" fill="#F5BF00"/>
</g>
<defs>
<filter id="filter0_d_0_1" x="0.590912" y="0.247158" width="114.822" height="39.1648" filterUnits="userSpaceOnUse" color-interpolation-filters="sRGB">
<feFlood flood-opacity="0" result="BackgroundImageFix"/>
<feColorMatrix in="SourceAlpha" type="matrix" values="0 0 0 0 0 0 0 0 0 0 0 0 0 0 0 0 0 0 127 0" result="hardAlpha"/>
<feOffset dy="4"/>
<feGaussianBlur stdDeviation="2"/>
<feComposite in2="hardAlpha" operator="out"/>
<feColorMatrix type="matrix" values="0 0 0 0 0 0 0 0 0 0 0 0 0 0 0 0 0 0 0.25 0"/>
<feBlend mode="normal" in2="BackgroundImageFix" result="effect1_dropShadow_0_1"/>
<feBlend mode="normal" in="SourceGraphic" in2="effect1_dropShadow_0_1" result="shape"/>
</filter>
<filter id="filter1_d_0_1" x="119.952" y="1.90909" width="155.631" height="37.517" filterUnits="userSpaceOnUse" color-interpolation-filters="sRGB">
<feFlood flood-opacity="0" result="BackgroundImageFix"/>
<feColorMatrix in="SourceAlpha" type="matrix" values="0 0 0 0 0 0 0 0 0 0 0 0 0 0 0 0 0 0 127 0" result="hardAlpha"/>
<feOffset dy="4"/>
<feGaussianBlur stdDeviation="2"/>
<feComposite in2="hardAlpha" operator="out"/>
<feColorMatrix type="matrix" values="0 0 0 0 0 0 0 0 0 0 0 0 0 0 0 0 0 0 0.25 0"/>
<feBlend mode="normal" in2="BackgroundImageFix" result="effect1_dropShadow_0_1"/>
<feBlend mode="normal" in="SourceGraphic" in2="effect1_dropShadow_0_1" result="shape"/>
</filter>
</defs>
</svg>
